<?xml version="1.0" standalone="no"?>
<!DOCTYPE svg PUBLIC "-//W3C//DTD SVG 20010904//EN"
 "http://www.w3.org/TR/2001/REC-SVG-20010904/DTD/svg10.dtd">
<svg version="1.0" xmlns="http://www.w3.org/2000/svg"
 width="500.000000pt" height="500.000000pt" viewBox="0 0 500.000000 500.000000"
 preserveAspectRatio="xMidYMid meet">

<g transform="translate(0.000000,500.000000) scale(0.100000,-0.100000)"
fill="#000000" stroke="none">
<path d="M1130 4321 c-37 -13 -143 -74 -197 -116 -41 -32 -89 -94 -162 -210
-10 -16 -63 -113 -116 -215 -54 -102 -101 -189 -105 -195 -13 -16 -141 -246
-166 -297 -13 -25 -28 -49 -33 -52 -5 -4 -15 -23 -22 -44 -7 -20 -40 -78 -74
-128 -70 -102 -89 -160 -88 -267 0 -56 6 -78 34 -134 63 -126 108 -176 195
-220 44 -22 102 -54 131 -71 59 -35 170 -81 253 -105 32 -9 66 -28 80 -43 46
-49 115 -88 210 -120 l95 -31 6 -383 c5 -281 4 -394 -5 -424 l-12 -41 -99 -11
c-123 -15 -213 -38 -279 -71 -77 -39 -103 -62 -153 -135 -44 -65 -47 -72 -47
-136 0 -154 57 -244 200 -312 145 -70 235 -90 399 -90 78 0 165 4 193 10 28 5
91 14 139 20 122 15 314 65 382 100 72 36 137 106 147 156 4 20 4 77 1 125
l-7 89 104 0 c76 0 121 -5 167 -20 58 -18 87 -36 206 -123 68 -50 157 -99 224
-123 63 -22 70 -23 152 -11 56 8 93 19 106 31 34 31 26 39 -31 31 -29 -4 -91
-6 -138 -5 -70 1 -91 5 -121 25 -19 12 -64 37 -100 55 -35 18 -78 45 -95 59
-46 41 -152 97 -219 116 -48 14 -78 16 -155 10 -129 -9 -127 -10 -162 20 -44
37 -92 60 -214 101 -103 34 -221 62 -292 68 -18 2 -34 5 -35 7 -13 17 -31 107
-33 164 -16 409 -22 638 -18 649 8 22 27 25 79 14 41 -9 56 -7 99 10 28 11 68
26 89 32 21 7 53 26 70 44 28 27 35 45 49 126 10 55 17 148 18 218 0 89 4 131
15 150 8 15 43 88 79 162 36 74 99 194 140 265 42 72 75 134 76 138 0 5 36 82
80 173 100 205 112 261 80 393 -12 47 -33 117 -48 154 -24 65 -32 74 -139 165
-117 101 -177 137 -278 171 -165 55 -579 106 -655 82z m56 -81 c-3 -11 -9 -29
-12 -40 -10 -33 34 -25 100 19 57 38 86 43 86 15 0 -8 -7 -17 -15 -21 -9 -3
-22 -18 -31 -34 -13 -26 -13 -30 1 -36 10 -3 28 3 43 16 31 25 141 81 160 81
24 0 11 -30 -28 -66 -46 -42 -53 -74 -17 -74 14 0 32 12 45 30 27 36 63 55
118 64 61 11 194 -32 270 -87 140 -98 205 -160 231 -217 45 -99 63 -171 63
-257 0 -86 -5 -113 -22 -113 -6 0 -46 33 -88 74 -91 87 -116 98 -142 66 -28
-35 -22 -54 30 -90 83 -60 162 -134 162 -153 0 -26 -18 -57 -33 -57 -7 0 -33
21 -57 46 -61 62 -156 134 -178 134 -22 0 -42 -19 -42 -40 0 -9 52 -61 115
-114 103 -88 115 -101 115 -131 0 -54 -21 -60 -71 -20 -150 119 -185 145 -201
145 -11 0 -25 -14 -35 -36 l-18 -36 41 -36 c22 -21 78 -68 122 -106 49 -41 82
-77 82 -88 0 -27 -28 -78 -43 -78 -12 0 -184 172 -202 202 -5 10 -32 23 -58
30 -44 11 -52 11 -85 -8 -66 -37 -76 -74 -90 -325 -7 -106 -9 -114 -30 -125
-38 -19 -45 -30 -33 -52 6 -11 20 -23 30 -27 22 -7 33 -29 25 -50 -8 -19 -28
-19 -44 1 -8 9 -25 14 -44 12 -25 -2 -32 -8 -34 -28 -2 -22 8 -34 59 -70 34
-25 65 -55 70 -68 5 -13 9 -59 9 -102 0 -60 -4 -82 -17 -98 -33 -37 -186 -62
-313 -51 -78 7 -341 68 -378 88 -12 6 -61 25 -109 42 -140 50 -328 153 -359
198 -14 19 -13 21 5 21 28 0 44 32 31 65 -16 42 -12 138 10 207 20 63 25 98
14 98 -18 0 -45 -26 -69 -66 -25 -43 -27 -54 -27 -163 l0 -116 -33 40 c-67 79
-69 187 -8 318 21 42 40 77 44 77 11 0 180 -57 221 -74 36 -15 37 -15 58 11
11 15 19 33 18 40 -3 12 -135 66 -195 80 -12 3 -29 13 -37 22 -13 14 -13 19 2
38 l17 22 110 -40 c155 -57 158 -58 178 -17 20 41 14 47 -65 69 -148 41 -178
58 -165 93 6 14 60 1 207 -50 69 -24 81 -23 107 15 26 39 24 47 -20 60 -89 27
-221 78 -224 86 -1 6 6 21 16 34 l18 23 94 -32 c52 -17 107 -34 123 -37 29 -6
29 -5 22 33 -8 48 -51 87 -113 106 -54 16 -69 38 -53 79 7 16 13 29 15 29 1 0
28 -9 60 -20 74 -25 96 -25 148 2 l42 21 -35 15 c-19 8 -57 23 -85 33 -27 9
-54 24 -59 32 -10 15 19 67 38 67 6 0 56 -16 111 -35 55 -19 110 -35 122 -35
20 0 63 42 63 61 0 19 -146 69 -199 69 -10 0 -25 8 -34 18 -14 16 -14 19 1 39
l17 21 75 -20 c164 -45 170 -45 192 -19 10 14 18 31 16 39 -4 17 -82 49 -153
62 -57 11 -95 29 -95 43 0 6 7 18 15 27 14 16 23 15 126 -17 60 -18 119 -33
129 -33 20 0 63 47 54 61 -7 11 -134 49 -166 49 -13 0 -33 7 -44 15 -19 14
-18 15 6 34 37 29 104 66 96 52 -4 -6 0 -14 8 -17 10 -4 30 6 51 25 41 36 60
40 51 11z m523 -1064 c20 -24 22 -97 13 -536 -10 -471 -11 -479 -66 -507 -52
-27 -138 -53 -175 -53 -74 0 -287 45 -381 79 -30 11 -62 20 -71 21 -8 0 -24 7
-35 15 -17 13 -13 13 31 -1 28 -8 73 -17 100 -19 28 -2 70 -7 95 -10 54 -7
210 9 266 28 30 10 44 23 62 57 20 41 22 58 22 216 0 95 -6 218 -12 275 -7 57
-12 166 -11 242 2 148 10 178 56 197 34 13 93 12 106 -4z m154 -213 c35 -32
37 -37 23 -51 -13 -14 -19 -12 -53 17 -21 17 -44 36 -50 42 -7 5 -13 23 -13
40 l0 30 28 -21 c15 -12 44 -38 65 -57z m-51 -130 c36 -33 10 -94 -27 -63 -18
15 -20 80 -3 80 6 0 20 -7 30 -17z m-482 -779 c2 -3 6 -161 7 -352 2 -191 5
-363 6 -382 2 -35 2 -35 -44 -38 -29 -2 -50 2 -56 10 -7 8 -13 142 -17 380 -4
202 -9 375 -13 384 -5 15 0 16 53 9 32 -4 61 -9 64 -11z m-168 -949 c9 -70 35
-157 52 -174 19 -18 107 -26 135 -12 39 21 56 61 62 148 3 45 8 86 12 90 28
28 426 -80 504 -136 61 -44 91 -124 61 -163 -21 -26 -148 -102 -221 -131 -37
-15 -125 -38 -195 -52 -109 -21 -155 -25 -324 -25 -293 0 -429 29 -535 116
-46 38 -83 105 -83 151 0 67 105 164 221 202 95 31 145 39 229 38 l75 -2 7
-50z m195 -112 c9 -24 -18 -43 -63 -43 -33 0 -46 5 -58 22 -9 12 -16 26 -16
30 0 14 131 6 137 -9z m613 -278 c-35 -36 -182 -115 -214 -115 -10 0 -69 -11
-130 -24 -375 -82 -595 -78 -807 14 -86 38 -105 52 -154 110 -43 51 -46 71 -5
37 16 -14 67 -43 112 -65 119 -57 261 -77 493 -68 204 8 233 12 458 56 68 14
211 85 239 118 l23 29 9 -29 c8 -25 5 -33 -24 -63z"/>
<path d="M1267 4022 c-14 -15 -23 -32 -19 -38 4 -6 29 -16 57 -23 69 -17 273
-108 314 -140 83 -65 113 -82 134 -79 15 2 23 11 25 29 3 22 -6 34 -45 65 -26
21 -69 55 -94 75 -26 21 -73 46 -110 57 -35 11 -100 34 -144 51 -44 17 -82 31
-85 31 -4 0 -18 -12 -33 -28z"/>
<path d="M1194 3902 c-11 -7 -34 -45 -34 -56 0 -10 54 -33 94 -40 22 -4 61
-18 86 -31 25 -13 70 -30 100 -39 31 -9 82 -36 115 -61 68 -52 103 -65 116
-44 18 29 7 52 -47 102 -65 60 -107 84 -167 96 -23 5 -78 22 -122 38 -102 38
-128 44 -141 35z"/>
<path d="M1093 3741 c-7 -11 -13 -25 -13 -29 0 -12 48 -32 195 -83 169 -58
174 -60 235 -118 64 -60 97 -73 117 -46 7 11 13 23 13 29 0 16 -117 122 -164
150 -74 43 -242 101 -327 112 -37 5 -46 3 -56 -15z"/>
<path d="M1056 3581 c-13 -14 -16 -28 -11 -50 7 -34 43 -51 200 -92 64 -17
100 -32 125 -54 76 -67 144 -115 161 -115 14 0 19 7 19 30 0 23 -17 48 -73
111 l-72 81 -164 54 c-91 30 -165 54 -166 54 -1 0 -10 -9 -19 -19z"/>
<path d="M882 3528 c-16 -16 -15 -43 3 -58 21 -18 47 5 43 39 -3 29 -27 38
-46 19z"/>
<path d="M975 3391 c-22 -16 -40 -32 -40 -36 0 -4 38 -20 85 -37 47 -16 117
-41 157 -55 55 -19 91 -41 154 -94 63 -54 88 -69 108 -67 23 3 26 8 29 44 3
39 0 44 -60 99 -35 31 -80 68 -101 82 -52 33 -186 81 -244 88 -42 5 -53 2 -88
-24z"/>
<path d="M860 3238 c-11 -18 -20 -38 -20 -44 0 -23 38 -43 125 -68 167 -47
204 -63 260 -114 71 -65 113 -86 140 -68 12 8 20 25 20 42 0 22 -15 41 -77 95
-81 70 -153 105 -305 149 -40 11 -75 25 -78 30 -13 21 -46 9 -65 -22z"/>
<path d="M768 3103 c-30 -36 -29 -42 9 -61 21 -11 53 -22 72 -26 30 -5 185
-62 236 -87 11 -5 40 -25 65 -44 25 -19 60 -43 78 -52 29 -15 34 -15 48 -2 20
20 9 65 -18 80 -11 6 -39 25 -62 43 -24 18 -56 37 -72 43 -16 6 -92 36 -169
67 -77 31 -147 56 -156 56 -9 0 -23 -8 -31 -17z"/>
<path d="M681 2954 c-21 -26 -20 -44 2 -44 7 0 81 -25 165 -56 147 -54 223
-90 308 -148 49 -33 72 -33 80 0 9 34 -15 58 -129 126 -88 52 -337 148 -386
148 -11 0 -29 -12 -40 -26z"/>
<path d="M465 2860 c-21 -23 -34 -88 -34 -173 -1 -92 73 -220 95 -163 3 7 -4
41 -15 74 -25 72 -27 162 -6 222 8 23 12 46 9 51 -9 15 -30 10 -49 -11z"/>
<path d="M580 2794 c-37 -85 -21 -184 47 -298 29 -49 56 -57 61 -19 2 12 -12
57 -31 100 -43 100 -52 152 -32 199 20 48 19 64 -5 64 -13 0 -25 -14 -40 -46z"/>
<path d="M744 2779 c-47 -91 32 -359 106 -359 30 0 37 56 11 89 -50 61 -74
169 -52 231 22 65 -34 99 -65 39z"/>
<path d="M3012 2688 c-8 -8 -12 -47 -12 -109 0 -82 3 -100 21 -123 29 -37 95
-37 130 0 21 23 24 36 27 120 4 105 -1 135 -21 115 -8 -8 -12 -46 -12 -107 0
-89 -2 -97 -24 -115 -24 -20 -59 -18 -73 5 -4 6 -8 54 -8 106 0 101 -7 129
-28 108z"/>
<path d="M3570 2565 c0 -105 3 -136 13 -132 9 3 12 38 12 132 0 94 -3 129 -12
133 -10 3 -13 -28 -13 -133z"/>
<path d="M3755 2686 c-41 -18 -55 -53 -55 -137 0 -61 3 -73 25 -94 17 -18 35
-25 62 -25 49 0 78 21 93 66 17 51 7 152 -17 174 -25 25 -72 32 -108 16z m73
-32 c19 -13 22 -24 22 -85 0 -89 -10 -109 -55 -109 -24 0 -38 6 -45 19 -14 27
-13 164 2 179 17 17 49 15 76 -4z"/>
<path d="M2792 2673 c-5 -10 -23 -61 -40 -113 -17 -52 -33 -103 -37 -112 -5
-12 -2 -18 8 -18 8 0 20 14 26 31 10 29 13 30 58 27 41 -3 50 -7 61 -30 13
-28 26 -35 36 -19 3 4 -13 63 -35 130 -40 120 -57 142 -77 104z m34 -88 c16
-22 18 -61 5 -70 -5 -3 -20 0 -34 6 l-24 11 16 56 c10 36 17 50 20 37 2 -11
10 -29 17 -40z"/>
<path d="M3287 2683 c-13 -12 -8 -228 5 -241 16 -16 83 -15 117 2 37 20 51 55
51 132 0 56 -4 68 -25 89 -20 21 -34 25 -83 25 -32 0 -62 -3 -65 -7z m127 -45
c14 -18 17 -35 14 -87 -5 -72 -22 -94 -73 -89 l-30 3 -3 104 -3 104 38 -6 c22
-4 46 -16 57 -29z"/>
<path d="M2505 2200 c-35 -14 -67 -58 -76 -102 -23 -118 0 -227 55 -264 56
-36 151 -16 186 41 17 27 20 49 20 141 0 67 -5 119 -13 134 -23 47 -115 74
-172 50z m89 -44 c40 -17 56 -55 56 -135 0 -66 -15 -124 -36 -146 -9 -8 -33
-15 -55 -15 -34 0 -42 5 -59 33 -16 26 -20 50 -20 125 0 100 9 128 43 142 30
12 33 12 71 -4z"/>
<path d="M2924 2196 c-12 -9 -14 -41 -12 -191 l3 -180 63 -3 c49 -2 74 2 107
18 60 29 75 65 75 182 0 143 -25 171 -163 181 -33 2 -64 -1 -73 -7z m146 -51
c18 -9 33 -28 40 -51 15 -45 8 -161 -11 -192 -23 -36 -102 -55 -127 -30 -8 8
-12 56 -12 150 l0 138 40 0 c23 0 54 -7 70 -15z"/>
<path d="M3423 2194 c-45 -23 -63 -74 -63 -185 0 -101 15 -149 54 -174 50 -33
166 -14 174 29 3 16 0 18 -19 11 -13 -4 -46 -8 -74 -9 -47 -1 -51 1 -68 34
-15 29 -18 53 -15 134 3 89 6 100 27 117 28 23 62 24 102 4 33 -18 49 -13 49
15 0 36 -110 52 -167 24z"/>
<path d="M3903 2198 c-18 -22 -125 -358 -119 -374 9 -23 38 -2 52 38 11 33 12
33 78 36 75 3 91 -4 100 -48 6 -31 39 -43 49 -17 2 6 -23 93 -57 192 -61 179
-77 206 -103 173z m53 -172 c9 -37 15 -68 13 -70 -13 -11 -69 -13 -83 -3 -14
11 -14 19 6 89 25 91 38 88 64 -16z"/>
<path d="M4303 2196 c-23 -11 -35 -25 -44 -54 -21 -72 5 -117 82 -142 60 -20
89 -46 89 -80 0 -51 -61 -74 -126 -50 -22 9 -31 8 -43 -5 -21 -20 -4 -35 49
-45 96 -18 170 32 170 115 0 38 -4 47 -32 69 -18 13 -53 30 -77 37 -113 33
-79 149 35 117 29 -7 40 -7 51 5 12 12 12 15 -1 26 -23 19 -116 24 -153 7z"/>
<path d="M1997 2193 c-4 -3 -7 -89 -7 -190 l0 -184 23 3 c20 3 22 9 25 71 l3
67 40 0 c83 0 138 42 146 113 6 53 -17 104 -53 117 -29 11 -167 14 -177 3z
m157 -54 c35 -28 37 -91 3 -113 -25 -17 -86 -24 -105 -12 -7 4 -12 33 -12 77
l0 69 44 0 c29 0 52 -7 70 -21z"/>
<path d="M4672 2183 c2 -13 16 -19 48 -23 l45 -5 3 -160 c1 -88 4 -166 7 -173
4 -10 10 -10 25 -2 19 10 20 21 20 175 l0 165 38 0 c36 0 62 14 62 32 0 4 -57
8 -126 8 -114 0 -125 -2 -122 -17z"/>
</g>
</svg>
