<?xml version="1.0" standalone="no"?>
<!DOCTYPE svg PUBLIC "-//W3C//DTD SVG 20010904//EN"
 "http://www.w3.org/TR/2001/REC-SVG-20010904/DTD/svg10.dtd">
<svg version="1.0" xmlns="http://www.w3.org/2000/svg"
 width="500.000000pt" height="500.000000pt" viewBox="0 0 500.000000 500.000000"
 preserveAspectRatio="xMidYMid meet">
<metadata>
Created by potrace 1.14, written by Peter Selinger 2001-2017
</metadata>
<g transform="translate(0.000000,500.000000) scale(0.100000,-0.100000)"
fill="#000000" stroke="none">
<path d="M2283 4330 c-81 -46 -111 -84 -202 -251 -46 -85 -108 -196 -138 -248
-29 -52 -53 -98 -53 -104 0 -5 -14 -27 -31 -49 -79 -99 -76 -203 9 -299 33
-38 160 -109 247 -139 29 -10 72 -33 97 -52 25 -19 66 -40 92 -47 l46 -11 1
-163 c0 -89 2 -184 4 -211 6 -69 -5 -83 -67 -91 -98 -12 -174 -43 -213 -86
-49 -55 -58 -82 -45 -141 19 -90 62 -127 194 -167 85 -26 159 -26 306 -1 168
28 218 46 263 91 39 38 39 40 35 99 -2 33 -2 60 1 61 77 10 148 -2 195 -34
167 -112 192 -123 264 -112 96 14 93 47 -3 38 -60 -5 -70 -3 -127 27 -35 19
-79 46 -98 61 -59 46 -112 62 -190 57 -52 -4 -73 -2 -81 8 -6 8 -31 23 -55 33
-45 20 -196 61 -225 61 -24 0 -28 24 -35 249 l-7 204 34 -7 c32 -6 94 11 143
40 25 15 46 102 46 191 l0 73 131 257 131 258 -5 65 c-7 90 -32 159 -70 194
-124 110 -180 135 -362 161 -146 21 -172 19 -232 -15z m79 -22 c-36 -36 6 -51
48 -18 35 27 61 26 31 -1 -38 -35 -10 -45 41 -15 58 34 81 34 45 1 -50 -47
-19 -65 35 -20 54 45 133 26 239 -60 56 -45 71 -64 88 -110 21 -55 29 -165 13
-165 -5 0 -21 14 -38 31 -40 43 -78 61 -93 46 -19 -19 -13 -31 49 -81 64 -53
64 -54 51 -75 -7 -12 -21 -4 -67 38 -31 28 -64 51 -73 49 -34 -7 -20 -36 43
-89 71 -58 70 -57 57 -79 -8 -11 -21 -5 -71 34 -60 48 -84 53 -97 20 -4 -10 7
-26 33 -47 89 -73 97 -82 90 -105 -4 -12 -11 -22 -15 -22 -4 0 -34 27 -67 59
-69 69 -100 81 -133 53 -26 -20 -39 -79 -40 -173 -1 -47 -5 -59 -23 -73 l-23
-15 23 -20 c28 -24 30 -46 3 -31 -57 30 -68 -3 -16 -48 30 -27 35 -37 36 -82
1 -28 -2 -55 -8 -61 -5 -5 -39 -15 -75 -21 -53 -8 -80 -7 -149 7 -140 28 -338
106 -392 153 -17 15 -17 17 -2 22 13 4 17 22 19 80 2 41 7 85 11 98 11 32 -18
29 -41 -5 -13 -20 -19 -47 -19 -90 0 -62 0 -62 -17 -40 -25 32 -23 112 3 162
12 22 22 41 23 42 1 1 33 -9 71 -23 60 -22 70 -23 83 -10 21 20 10 30 -58 56
-33 12 -60 29 -60 36 0 19 4 18 84 -11 54 -20 71 -22 78 -13 16 26 2 41 -59
61 -35 12 -63 24 -63 29 0 13 22 10 89 -13 49 -15 66 -17 77 -8 26 22 14 37
-48 59 -75 27 -80 31 -68 49 7 12 18 11 70 -8 34 -13 64 -21 66 -18 3 3 2 17
-2 32 -5 20 -19 33 -50 46 -31 14 -42 24 -37 35 4 12 13 14 37 9 46 -11 77 -9
92 7 12 12 7 17 -36 32 -52 19 -59 26 -37 44 10 9 31 6 80 -10 66 -22 67 -22
81 -3 13 18 13 21 0 32 -9 6 -38 17 -65 23 -30 7 -49 17 -49 26 0 18 8 18 83
-2 57 -15 62 -14 74 2 17 23 11 30 -50 49 -28 9 -58 19 -66 21 -10 3 -11 8 -3
16 8 8 29 6 78 -8 65 -17 67 -17 80 1 17 23 11 27 -65 45 l-54 13 24 18 c13
11 32 17 42 15 9 -2 27 4 40 15 25 21 37 25 19 7z m287 -825 c-1 -137 -4 -261
-8 -278 -13 -61 -98 -79 -247 -50 -89 17 -112 30 -38 22 73 -8 173 8 197 31
17 18 19 32 16 163 -8 348 -7 359 52 359 l29 0 -1 -247z m95 105 c-7 -11 -64
33 -64 49 0 9 12 4 34 -14 19 -15 33 -31 30 -35z m-38 -74 c-5 -13 -10 -14
-18 -6 -6 6 -8 18 -4 28 5 13 10 14 18 6 6 -6 8 -18 4 -28z m-415 -332 c-7 -2
-18 1 -23 6 -8 8 -4 9 13 5 13 -4 18 -8 10 -11z m149 -256 c0 -107 3 -201 6
-210 5 -13 -1 -16 -25 -16 l-31 0 0 188 c0 103 -3 197 -6 210 -6 19 -3 22 25
22 l31 0 0 -194z m-90 -318 c-1 -73 28 -118 76 -118 34 0 64 45 64 96 0 50 0
50 82 33 87 -17 178 -52 204 -77 38 -39 32 -68 -22 -102 -97 -61 -215 -84
-401 -78 -148 5 -217 24 -261 71 -38 41 -38 71 3 115 44 49 120 78 212 81 38
1 43 -1 43 -21z m100 -70 c0 -13 -20 -19 -40 -13 -30 10 -24 22 10 21 16 -1
30 -4 30 -8z m341 -142 c-20 -24 -116 -63 -201 -82 -58 -13 -126 -19 -215 -19
-116 0 -137 3 -193 25 -35 14 -77 40 -95 59 l-32 33 49 -31 c65 -40 137 -54
283 -53 185 2 369 45 399 94 6 9 9 9 12 0 2 -7 -1 -18 -7 -26z"/>
<path d="M2405 4190 c-19 -21 -22 -19 80 -59 44 -18 103 -48 132 -68 47 -32
73 -37 73 -12 0 11 -51 62 -85 84 -11 8 -57 27 -102 44 -78 29 -82 29 -98 11z"/>
<path d="M2357 4123 c-4 -3 -7 -14 -7 -23 0 -12 23 -25 87 -46 47 -16 104 -41
125 -56 42 -31 63 -35 71 -13 10 25 -71 81 -167 114 -97 34 -99 34 -109 24z"/>
<path d="M2307 4036 c-8 -21 10 -33 109 -67 58 -20 101 -42 127 -65 40 -36 60
-40 65 -11 8 38 -108 113 -221 143 -65 17 -74 17 -80 0z"/>
<path d="M2284 3945 c-12 -29 6 -44 78 -66 45 -13 93 -36 124 -60 28 -22 56
-39 62 -39 23 0 11 36 -27 79 -32 36 -53 49 -122 72 -98 33 -108 34 -115 14z"/>
<path d="M2192 3908 c2 -12 10 -23 18 -23 22 0 19 39 -3 43 -15 3 -18 -1 -15
-20z"/>
<path d="M2250 3849 c-18 -11 -30 -23 -27 -26 3 -3 42 -18 87 -33 49 -18 101
-45 132 -70 56 -45 71 -46 76 -8 5 41 -75 101 -183 138 -52 18 -53 18 -85 -1z"/>
<path d="M2179 3759 c-16 -31 3 -45 91 -70 51 -14 89 -32 123 -60 27 -21 53
-39 57 -39 15 0 30 28 24 43 -12 33 -110 95 -189 121 -96 31 -92 31 -106 5z"/>
<path d="M2126 3683 c-9 -22 2 -31 60 -47 79 -22 116 -39 163 -74 47 -34 64
-36 69 -9 5 24 -74 76 -171 114 -94 37 -112 39 -121 16z"/>
<path d="M2084 3609 c-19 -21 -29 -15 109 -64 42 -15 101 -42 129 -61 38 -23
56 -30 65 -22 18 15 0 44 -40 64 -18 9 -39 22 -47 29 -8 7 -56 26 -107 43 -89
29 -92 30 -109 11z"/>
<path d="M1960 3544 c-15 -39 -12 -109 7 -149 17 -36 41 -43 34 -9 -2 10 -4
56 -5 102 0 61 -4 82 -13 82 -8 0 -18 -12 -23 -26z"/>
<path d="M2030 3525 c-5 -14 -10 -38 -10 -53 0 -68 47 -158 70 -136 9 9 7 24
-10 60 -15 34 -20 64 -18 98 3 56 -15 74 -32 31z"/>
<path d="M2122 3518 c-29 -29 3 -167 46 -196 32 -21 40 18 11 58 -18 24 -22
42 -21 90 2 61 -9 75 -36 48z"/>
</g>
</svg>
